<?xml version="1.0" standalone="no"?>
<!DOCTYPE svg PUBLIC "-//W3C//DTD SVG 20010904//EN"
 "http://www.w3.org/TR/2001/REC-SVG-20010904/DTD/svg10.dtd">
<svg version="1.0" xmlns="http://www.w3.org/2000/svg"
 width="446.000000pt" height="446.000000pt" viewBox="0 0 446.000000 446.000000"
 preserveAspectRatio="xMidYMid meet">
<metadata>
Created by potrace 1.11, written by Peter Selinger 2001-2013
</metadata>
<g transform="translate(0.000000,446.000000) scale(0.100000,-0.100000)"
fill="#000000" stroke="none">
<path d="M1090 2545 c-36 -8 -83 -22 -105 -32 -78 -33 -200 -146 -234 -217
-24 -49 -44 -157 -39 -212 l3 -39 13 58 c8 31 17 57 22 57 24 0 29 -328 6
-385 -9 -21 -14 -40 -12 -42 2 -2 30 22 61 54 l57 58 -4 -43 c-3 -37 -2 -41 9
-26 7 10 13 21 13 26 0 4 6 8 13 8 6 -1 28 -35 47 -77 31 -68 110 -173 130
-173 4 0 11 17 14 38 11 59 27 102 38 102 6 0 9 -13 6 -32 -3 -18 -2 -42 3
-53 4 -11 8 -14 8 -7 1 19 71 122 83 122 6 0 8 -25 6 -61 l-3 -60 22 28 c13
15 23 31 23 36 0 15 22 6 40 -15 l18 -22 7 42 c4 23 11 42 16 42 5 0 19 -16
30 -35 24 -41 42 -46 33 -10 -4 17 -2 25 6 25 20 0 -17 36 -64 63 -23 13 -68
29 -101 37 -75 16 -141 49 -179 89 -20 20 -39 31 -58 31 -40 0 -68 32 -68 79
0 21 -7 58 -15 81 -34 95 -10 267 45 321 15 15 30 34 32 41 9 22 125 51 182
45 69 -6 157 -41 195 -78 52 -49 108 -144 152 -258 16 -41 20 -17 9 59 -6 40
-8 75 -6 77 3 3 12 -10 22 -29 29 -56 28 -11 -2 49 -38 78 -146 186 -219 219
-71 33 -163 40 -255 19z"/>
<path d="M2952 1980 c0 -14 2 -19 5 -12 2 6 2 18 0 25 -3 6 -5 1 -5 -13z"/>
<path d="M1670 1965 c13 -14 25 -25 27 -25 9 0 -33 49 -41 50 -5 0 1 -11 14
-25z"/>
<path d="M2445 1878 c8 -24 61 -79 69 -71 6 6 -56 93 -67 93 -4 0 -5 -10 -2
-22z"/>
<path d="M3028 1885 c-3 -3 -25 -7 -50 -9 -25 -2 -50 -6 -54 -9 -27 -16 -96
-18 -125 -3 -25 12 -30 13 -26 2 4 -11 -12 -17 -66 -26 -40 -6 -79 -15 -88
-20 -9 -5 -25 -6 -36 -4 -12 3 4 -19 42 -60 34 -35 70 -81 80 -100 11 -20 24
-36 29 -36 5 0 22 -14 38 -31 31 -32 54 -33 25 -1 -10 10 -14 22 -10 27 5 4 2
5 -5 1 -12 -7 -62 35 -62 52 0 4 -12 20 -26 35 -21 23 -24 31 -14 40 8 8 11 8
7 1 -4 -7 4 -11 21 -12 15 0 32 -1 37 -2 21 -5 36 1 30 10 -4 6 -11 8 -16 5
-5 -4 -9 -1 -9 5 0 7 11 10 28 7 15 -2 21 -2 15 0 -22 8 -14 30 15 42 47 19
315 72 323 64 4 -4 10 -42 12 -83 l3 -75 2 86 c2 71 -1 88 -14 93 -19 7 -99 8
-106 1z m49 -11 c-3 -3 -12 -4 -19 -1 -8 3 -5 6 6 6 11 1 17 -2 13 -5z m-64
-11 c-7 -2 -19 -2 -25 0 -7 3 -2 5 12 5 14 0 19 -2 13 -5z m-68 -13 c-11 -5
-27 -9 -35 -9 -13 -1 -13 0 0 9 8 5 24 9 35 9 l20 0 -20 -9z m-95 -20 c-34
-11 -60 -11 -35 0 11 5 29 8 40 8 16 0 15 -2 -5 -8z m-83 -56 c-3 -3 -12 -4
-19 -1 -8 3 -5 6 6 6 11 1 17 -2 13 -5z"/>
<path d="M2080 1856 c0 -2 7 -6 15 -10 8 -3 15 -1 15 4 0 6 -7 10 -15 10 -8 0
-15 -2 -15 -4z"/>
<path d="M1995 1810 c2 -18 9 -38 14 -43 17 -17 13 35 -4 57 -13 18 -14 17
-10 -14z"/>
<path d="M2050 1721 c0 -5 7 -14 15 -21 16 -14 18 -10 9 14 -6 17 -24 22 -24
7z"/>
<path d="M2785 1709 c-4 -6 -20 -7 -38 -4 l-32 7 24 -24 c16 -16 25 -19 28
-10 3 6 11 12 19 12 8 0 14 7 14 15 0 18 -6 19 -15 4z"/>
<path d="M2088 1652 c-6 -22 9 -33 45 -31 15 0 17 2 7 6 -8 3 -22 14 -31 25
-16 21 -16 21 -21 0z"/>
<path d="M3142 1635 c0 -16 2 -22 5 -12 2 9 2 23 0 30 -3 6 -5 -1 -5 -18z"/>
<path d="M2820 1600 c0 -5 5 -10 10 -10 6 0 10 5 10 10 0 6 -4 10 -10 10 -5 0
-10 -4 -10 -10z"/>
<path d="M2855 1569 c-4 -6 -5 -12 -2 -15 2 -3 7 2 10 11 7 17 1 20 -8 4z"/>
<path d="M2826 1535 c4 -8 11 -15 16 -15 6 0 5 6 -2 15 -7 8 -14 15 -16 15 -2
0 -1 -7 2 -15z"/>
<path d="M2872 1475 c11 -20 22 -34 24 -32 7 6 -27 67 -36 67 -5 0 0 -16 12
-35z"/>
<path d="M3142 1465 c0 -16 2 -22 5 -12 2 9 2 23 0 30 -3 6 -5 -1 -5 -18z"/>
<path d="M2910 1428 c0 -9 5 -20 10 -23 13 -8 13 5 0 25 -8 13 -10 13 -10 -2z"/>
<path d="M3045 1399 c-44 -9 -88 -15 -98 -12 -16 4 -14 -2 9 -36 31 -48 41
-54 20 -12 -14 25 -14 30 -1 35 17 6 29 -9 21 -29 -3 -8 6 -27 21 -42 24 -27
25 -27 11 -3 -8 14 -14 35 -13 48 1 24 23 45 37 36 13 -8 10 -114 -4 -114 -6
0 -3 -9 7 -20 10 -11 21 -20 24 -20 3 0 6 37 6 82 0 67 3 83 15 83 12 0 15
-17 16 -88 2 -124 12 -120 16 7 2 58 1 106 -2 105 -3 -1 -41 -10 -85 -20z"/>
<path d="M3450 1260 c0 -21 8 -24 34 -14 13 5 14 9 5 20 -17 21 -39 17 -39 -6z"/>
<path d="M2810 1040 c0 -6 7 -10 15 -10 8 0 15 2 15 4 0 2 -7 6 -15 10 -8 3
-15 1 -15 -4z"/>
<path d="M2496 891 c5 -5 47 -19 94 -30 47 -12 137 -35 200 -51 152 -40 627
-162 814 -209 l148 -38 137 54 c75 30 163 64 196 77 216 82 361 139 369 147
17 15 -12 10 -62 -10 -91 -38 -560 -220 -604 -235 -49 -17 -11 -25 -563 118
-795 206 -748 195 -729 177z"/>
<path d="M2472 825 c3 -4 28 -11 54 -18 45 -11 50 -15 55 -47 6 -31 7 -32 8
-7 1 25 4 27 29 21 35 -9 37 -11 24 -26 -5 -7 -12 -64 -14 -126 -2 -70 -7
-115 -14 -120 -9 -5 -8 -11 2 -20 11 -10 14 -10 15 0 5 120 19 241 29 253 7 8
20 15 29 15 9 0 126 -29 261 -66 135 -36 313 -83 395 -105 207 -55 201 -52
209 -104 3 -25 8 -131 11 -237 4 -106 8 -203 11 -215 4 -23 7 -23 157 -23 146
0 153 1 153 20 0 13 -4 16 -10 10 -7 -7 -35 14 -83 62 -40 40 -73 75 -73 79 0
4 17 14 39 22 35 14 45 14 107 0 38 -8 75 -17 83 -19 11 -4 13 -22 7 -92 -4
-58 -3 -82 4 -72 5 8 10 31 11 50 0 19 4 46 8 60 6 19 10 8 18 -50 l10 -75 2
67 c1 80 7 98 32 98 21 0 27 -19 32 -105 3 -49 4 -46 4 18 0 42 2 80 5 83 6 6
92 -8 201 -33 52 -11 70 -20 76 -36 7 -19 9 -17 14 13 3 19 16 116 27 215 18
155 24 182 42 198 11 10 18 20 15 23 -3 3 -50 16 -104 28 l-98 23 -3 42 c-2
25 2 49 10 58 7 9 55 36 106 59 50 24 92 48 92 53 0 15 -193 -77 -215 -103
-23 -26 -57 -43 -175 -84 -47 -16 -134 -49 -195 -72 -122 -46 -119 -46 -270
-6 -55 15 -158 43 -230 61 -71 19 -173 46 -225 60 -52 15 -126 35 -165 45
-154 43 -496 130 -507 130 -6 0 -9 -2 -6 -5z m1750 -215 c-4 -27 0 -32 32 -45
l36 -15 0 -74 0 -73 -77 -26 c-126 -42 -180 -62 -330 -121 -78 -31 -145 -56
-148 -56 -3 0 -5 62 -5 139 0 137 0 139 23 139 12 0 108 33 212 72 277 105
263 102 257 60z m178 -117 c0 -19 -5 -77 -12 -129 -9 -80 -14 -94 -29 -94 -10
0 -23 8 -28 18 -13 24 -25 192 -16 230 6 29 7 29 46 20 36 -10 39 -13 39 -45z
m-745 4 l50 -13 3 -125 c1 -68 0 -133 -2 -145 -5 -20 -8 -21 -56 -8 -28 7 -54
15 -59 18 -10 6 -21 219 -14 259 6 31 10 31 78 14z"/>
<path d="M2260 781 c0 -6 4 -13 10 -16 6 -3 7 1 4 9 -7 18 -14 21 -14 7z"/>
<path d="M2182 593 c2 -181 6 -165 10 40 2 70 0 127 -4 127 -5 0 -7 -75 -6
-167z"/>
<path d="M2227 729 c22 -8 23 -13 19 -101 -2 -51 -9 -121 -16 -155 -11 -53
-11 -65 1 -79 9 -11 13 -38 12 -78 -1 -43 0 -52 5 -31 7 27 11 30 42 28 30 -2
32 -1 12 7 -26 11 -39 37 -25 51 5 5 68 -12 161 -46 170 -60 175 -63 167 -76
-4 -5 -1 -9 4 -9 7 0 11 24 11 59 l0 58 -62 13 c-92 18 -96 19 -100 37 -2 9
-15 17 -33 19 -44 5 -178 55 -168 64 13 11 127 51 151 53 12 1 22 4 22 7 0 16
-13 17 -39 4 -15 -8 -42 -17 -59 -20 l-32 -6 0 85 c0 59 4 87 13 90 25 9 -11
29 -59 32 -36 2 -43 0 -27 -6z m63 -115 c0 -61 -4 -93 -10 -89 -5 3 -10 46
-10 96 0 53 4 89 10 89 6 0 10 -39 10 -96z m95 -196 c33 -12 66 -28 73 -35 7
-7 25 -13 40 -13 45 -1 112 -36 112 -60 0 -11 -3 -20 -7 -20 -5 0 -84 27 -178
59 -157 54 -170 60 -173 84 -3 25 -2 25 35 16 21 -5 65 -20 98 -31z"/>
<path d="M2733 689 c-16 -6 -22 -19 -27 -56 -12 -97 -37 -493 -33 -520 3 -23
4 -21 6 10 1 43 18 54 53 37 22 -11 22 -10 4 4 -11 9 -23 16 -28 16 -4 0 -8
11 -8 24 l0 25 63 -25 c112 -44 204 -114 130 -99 -16 3 -11 -1 14 -11 24 -9
58 -33 76 -55 l34 -39 252 0 253 0 -7 63 c-3 34 -12 137 -19 229 -9 113 -18
175 -28 190 -11 16 -41 29 -114 49 -54 15 -160 43 -234 63 -154 42 -208 57
-301 84 -40 11 -74 16 -86 11z m191 -58 c66 -18 123 -34 128 -37 10 -6 10
-105 0 -120 -4 -6 -15 -13 -25 -17 -13 -5 -33 -35 -42 -64 0 0 -61 16 -135 36
l-135 37 2 80 c4 120 7 127 51 122 20 -3 91 -19 156 -37z m169 -103 c-6 -56
-9 -65 -19 -55 -9 8 6 107 16 107 5 0 6 -24 3 -52z m34 -25 c-4 -38 -7 -85 -7
-105 0 -65 -15 -41 -18 28 -4 78 6 144 20 144 7 0 9 -23 5 -67z m31 -45 c-11
-140 -14 -148 -42 -148 -25 0 -44 36 -47 84 -1 17 -2 18 -6 4 -2 -10 -9 -18
-14 -18 -14 0 -11 38 4 43 7 4 6 6 -5 6 -9 1 -18 -5 -21 -11 -6 -20 10 -80 25
-89 10 -7 10 -9 -3 -9 -25 0 -39 22 -39 65 0 53 11 67 46 63 26 -3 29 -7 32
-47 3 -46 17 -81 31 -81 5 0 12 54 16 120 5 80 11 120 19 120 9 0 10 -27 4
-102z m147 69 c50 -14 102 -27 116 -31 35 -8 47 -40 55 -146 6 -77 5 -90 -8
-90 -23 0 -291 78 -298 87 -7 8 6 175 15 200 2 7 10 11 17 8 7 -2 54 -15 103
-28z m-571 -83 c14 -5 14 -9 -1 -35 -10 -16 -21 -29 -25 -29 -6 0 -5 44 1 68
1 3 8 2 25 -4z m0 -119 c3 -9 0 -15 -9 -15 -8 0 -15 7 -15 15 0 8 4 15 9 15 5
0 11 -7 15 -15z m28 -69 c23 -28 22 -35 -2 -29 -11 3 -20 9 -20 14 0 5 -9 9
-20 9 -14 0 -20 7 -20 21 0 16 4 19 23 14 12 -4 30 -17 39 -29z"/>
<path d="M4286 642 c5 -5 36 -14 69 -21 33 -7 70 -15 83 -18 12 -3 22 -1 22 5
0 5 -37 17 -82 26 -95 18 -106 19 -92 8z"/>
<path d="M2441 454 c0 -11 3 -14 6 -6 3 7 2 16 -1 19 -3 4 -6 -2 -5 -13z"/>
<path d="M2171 348 c1 -55 5 -50 11 15 2 20 0 37 -4 37 -4 0 -7 -24 -7 -52z"/>
<path d="M1660 290 c0 -5 7 -10 15 -10 8 0 15 5 15 10 0 6 -7 10 -15 10 -8 0
-15 -4 -15 -10z"/>
<path d="M2163 205 c0 -27 2 -38 4 -22 2 15 2 37 0 50 -2 12 -4 0 -4 -28z"/>
<path d="M2540 236 c0 -2 7 -7 16 -10 8 -3 12 -2 9 4 -6 10 -25 14 -25 6z"/>
<path d="M1657 223 c-11 -10 -8 -43 3 -43 6 0 10 11 10 25 0 26 -2 29 -13 18z"/>
<path d="M2595 221 c-3 -5 -1 -12 5 -16 5 -3 10 1 10 9 0 18 -6 21 -15 7z"/>
<path d="M1270 191 c0 -12 5 -21 10 -21 6 0 10 6 10 14 0 8 -4 18 -10 21 -5 3
-10 -3 -10 -14z"/>
<path d="M4447 102 c-8 -86 -6 -114 8 -100 3 3 4 48 3 99 l-3 94 -8 -93z"/>
<path d="M2153 55 c0 -27 2 -38 4 -22 2 15 2 37 0 50 -2 12 -4 0 -4 -28z"/>
<path d="M1615 70 c-3 -5 -1 -10 4 -10 6 0 11 5 11 10 0 6 -2 10 -4 10 -3 0
-8 -4 -11 -10z"/>
</g>
</svg>
